<mxfile host="app.diagrams.net" agent="Mozilla/5.0 (Windows NT 10.0; Win64; x64) AppleWebKit/537.36 (KHTML, like Gecko) Chrome/135.0.0.0 Safari/537.36 OPR/120.0.0.0" version="28.0.6">
  <diagram name="Page-1" id="OYuGZPloSBVsD_DwooSW">
    <mxGraphModel dx="1316" dy="753" grid="1" gridSize="10" guides="1" tooltips="1" connect="1" arrows="1" fold="1" page="1" pageScale="1" pageWidth="827" pageHeight="1169" math="0" shadow="0">
      <root>
        <mxCell id="0" />
        <mxCell id="1" parent="0" />
        <mxCell id="JQ1Hy4C3v7SR4YSuLF_I-12" value="" style="edgeStyle=orthogonalEdgeStyle;rounded=0;orthogonalLoop=1;jettySize=auto;html=1;" edge="1" parent="1" source="JQ1Hy4C3v7SR4YSuLF_I-1" target="JQ1Hy4C3v7SR4YSuLF_I-10">
          <mxGeometry relative="1" as="geometry" />
        </mxCell>
        <mxCell id="JQ1Hy4C3v7SR4YSuLF_I-1" value="users" style="swimlane;whiteSpace=wrap;html=1;" vertex="1" parent="1">
          <mxGeometry x="40" y="160" width="200" height="200" as="geometry" />
        </mxCell>
        <mxCell id="JQ1Hy4C3v7SR4YSuLF_I-2" value="id primary key integer" style="text;html=1;align=center;verticalAlign=middle;resizable=0;points=[];autosize=1;strokeColor=none;fillColor=none;" vertex="1" parent="JQ1Hy4C3v7SR4YSuLF_I-1">
          <mxGeometry x="20" y="38" width="140" height="30" as="geometry" />
        </mxCell>
        <mxCell id="JQ1Hy4C3v7SR4YSuLF_I-5" value="userName TEXT UNIQUE" style="text;html=1;align=center;verticalAlign=middle;resizable=0;points=[];autosize=1;strokeColor=none;fillColor=none;" vertex="1" parent="1">
          <mxGeometry x="50" y="230" width="160" height="30" as="geometry" />
        </mxCell>
        <mxCell id="JQ1Hy4C3v7SR4YSuLF_I-6" value="email TEXT UNIQUE" style="text;html=1;align=center;verticalAlign=middle;resizable=0;points=[];autosize=1;strokeColor=none;fillColor=none;" vertex="1" parent="1">
          <mxGeometry x="60" y="261" width="140" height="30" as="geometry" />
        </mxCell>
        <mxCell id="JQ1Hy4C3v7SR4YSuLF_I-7" value="password TEXT HASHED" style="text;html=1;align=center;verticalAlign=middle;resizable=0;points=[];autosize=1;strokeColor=none;fillColor=none;" vertex="1" parent="1">
          <mxGeometry x="49" y="291" width="160" height="30" as="geometry" />
        </mxCell>
        <mxCell id="JQ1Hy4C3v7SR4YSuLF_I-10" value="tasks" style="swimlane;whiteSpace=wrap;html=1;" vertex="1" parent="1">
          <mxGeometry x="320" y="160" width="200" height="200" as="geometry" />
        </mxCell>
        <mxCell id="JQ1Hy4C3v7SR4YSuLF_I-11" value="id primary key integer" style="text;html=1;align=center;verticalAlign=middle;resizable=0;points=[];autosize=1;strokeColor=none;fillColor=none;" vertex="1" parent="JQ1Hy4C3v7SR4YSuLF_I-10">
          <mxGeometry x="20" y="38" width="140" height="30" as="geometry" />
        </mxCell>
        <mxCell id="JQ1Hy4C3v7SR4YSuLF_I-13" value="created_at TIMESTAMP" style="text;html=1;align=center;verticalAlign=middle;resizable=0;points=[];autosize=1;strokeColor=none;fillColor=none;" vertex="1" parent="1">
          <mxGeometry x="54" y="319" width="150" height="30" as="geometry" />
        </mxCell>
      </root>
    </mxGraphModel>
  </diagram>
</mxfile>
